,
Brought to you by  http://www.scenetime.com/signup.php
 
 Hottest scene tracker on the net !!!   
 
No fake torrents from scenebalance 
shame on those who comment fake before downloading my torrents

    seed back for speed


 



...................................NFO:.................................................
                   _..._                          _..._    
                .-'_..._''.                    .-'_..._''.  
        .--.  .' .'      '.\                 .' .'      '.\
        |__| / .'                           / .'            
    .|  .--.. '               .|           . '              
  .' |_ |  || |             .' |_     __   | |              
.'     ||  || |           .'     | .:--.'. | |              
'--.  .-'|  |. '          '--.  .-'/ |   \ |. '              
  |  |  |  | \ '.          .|  |  `" __ | | \ '.          .
  |  |  |__|  '. `._____.-'/|  |   .'.''| |  '. `._____.-'/
  |  '.'        `-.______ / |  '.'/ /   | |_   `-.______ /  
  |   /                  `  |   / \ \._,\ '/            `  
  `'-'                      `'-'   `--'  `"                

_____ _____  ____   ____  ____  __  _  _____  ____
| ()_)| () )| ===| (_ (_`| ===||  \| ||_   _|(_ (_`
|_|   |_|\_\|____|.__)__)|____||_|\__|  |_| .__)__)




Honor 2006 DVDRip (REQ) TiCTaC

 
http://www.imdb.com/title/tt0481544/





In a world where street gangs collide with the law, neighborhood friends, Raymond and Gabriel, must decide which side of the battle to join. This will be the ultimate fight - the one for power, family, and HONOR.



4.2/10


Cast

Jason Barry 	Jason Barry 	... 	
Gabriel
Russell Wong 	Russell Wong 	... 	
Ray
Roddy Piper 	Roddy Piper 	... 	
LT Tyrell
Remy Bonjasky 	Remy Bonjasky 	... 	
Trace
Linda Park 	Linda Park 	... 	
Kate
Masakatsu Funaki 	Masakatsu Funaki 	... 	
Mr. Sato (as Masa Funaki)
Fuyuhiko Nishi 	Fuyuhiko Nishi 	... 	
Saigo
Joanna Pacula 	Joanna Pacula 	... 	
Rose Tyrell
Don Frye 	Don Frye 	... 	
Shay
Rener Gracie 	Rener Gracie 	... 	
Hip
Rorion Gracie 	Rorion Gracie 	... 	
Buckley
John T. Woods 	John T. Woods 	... 	
Jason Tyrell
Mitch Morris 	Mitch Morris 	... 	
Young Gabriel
Evan Grayson 	Evan Grayson 	... 	
Duff
Fernando Chien 	Fernando Chien 	... 	



Genres:
Action | Drama

Country:
USA
Language:
Japanese (some dialogue) | English
Release Date:
29 July 2006 (USA)

Runtime:
USA: 87 min

Color 

General
Complete name                    : G:\Honor 2006 DVDRip (REQ) TiCTaC\Honor 2006 DVDRip (REQ) TiCTaC.avi
Format                           : AVI
Format/Info                      : Audio Video Interleave
File size                        : 1.01 GiB
Duration                         : 1h 24mn
Overall bit rate                 : 1 698 Kbps
Writing application              : Lavf52.13.0
Writing library                  : VirtualDub build 32842/release

Video
ID                               : 0
Format                           : MPEG-4 Visual
Format profile                   : Simple@L1
Format settings, BVOP            : No
Format settings, QPel            : No
Format settings, GMC             : No warppoints
Format settings, Matrix          : Default (H.263)
Codec ID                         : XVID
Codec ID/Hint                    : XviD
Duration                         : 1h 24mn
Bit rate                         : 1 494 Kbps
Width                            : 720 pixels
Height                           : 432 pixels
Display aspect ratio             : 16:9
Frame rate                       : 25.000 fps
Resolution                       : 8 bits
Colorimetry                      : 4:2:0
Scan type                        : Progressive
Bits/(Pixel*Frame)               : 0.192
Stream size                      : 908 MiB (88%)
Writing library                  : Lavc51.54.0

Audio
ID                               : 1
Format                           : MPEG Audio
Format version                   : Version 1
Format profile                   : Layer 3
Mode                             : Joint stereo
Format_Settings_ModeExtension    : MS Stereo
Codec ID                         : 55
Codec ID/Hint                    : MP3
Duration                         : 1h 24mn
Bit rate mode                    : Constant
Bit rate                         : 192 Kbps
Channel(s)                       : 2 channels
Sampling rate                    : 44.1 KHz
Stream size                      : 117 MiB (11%)
Alignment                        : Aligned on interleaves
Interleave, duration             : 26 ms (0.65 video frame)
Interleave, preload duration     : 522 ms
Writing library                  : LAME3.98 (beta)